<?xml version="1.0" standalone="no"?>
<!DOCTYPE svg PUBLIC "-//W3C//DTD SVG 20010904//EN"
 "http://www.w3.org/TR/2001/REC-SVG-20010904/DTD/svg10.dtd">
<svg version="1.0" xmlns="http://www.w3.org/2000/svg"
 width="2000.000000pt" height="1500.000000pt" viewBox="0 0 2000.000000 1500.000000"
 preserveAspectRatio="xMidYMid meet">

<g transform="translate(0.000000,1500.000000) scale(0.100000,-0.100000)"
fill="#000000" stroke="none">
<path d="M9714 11965 c-333 -125 -486 -198 -617 -293 -26 -19 -50 -33 -52 -30
-2 2 -1 36 3 75 10 86 2 113 -32 113 -28 0 -59 -24 -189 -148 -49 -47 -109
-93 -137 -106 -44 -20 -56 -22 -106 -13 -186 32 -405 -99 -500 -300 -37 -77
-41 -82 -77 -88 -21 -4 -100 -1 -176 6 -176 16 -204 9 -304 -74 -202 -169
-744 -696 -783 -763 -14 -23 -38 -80 -54 -128 -16 -47 -41 -109 -57 -138 -29
-54 -156 -186 -449 -468 -176 -168 -255 -268 -326 -406 -112 -219 -158 -398
-243 -949 -25 -165 -50 -318 -54 -340 -7 -37 -1 -53 77 -210 147 -296 235
-538 281 -780 26 -134 26 -167 1 -190 -15 -13 -30 -16 -60 -12 l-40 5 0 -93
c0 -213 6 -232 250 -780 222 -500 337 -782 412 -1015 12 -36 20 -46 41 -50 38
-7 94 -54 116 -98 11 -21 25 -66 31 -101 56 -308 199 -542 393 -640 97 -49
156 -61 309 -61 200 0 272 -20 369 -101 116 -95 289 -159 436 -159 l85 0 267
-138 c146 -77 319 -171 383 -210 64 -40 126 -72 137 -72 12 0 30 9 42 21 11
11 24 18 27 14 4 -4 6 -36 5 -72 l-1 -64 36 5 c21 3 93 13 162 21 438 51 766
47 1030 -12 121 -28 140 -29 286 -18 114 9 166 -5 324 -85 118 -61 172 -77
210 -65 20 6 22 12 17 51 -4 43 -4 43 41 64 83 39 309 88 355 76 15 -3 47 -33
76 -70 28 -35 65 -70 83 -79 l33 -16 7 83 c3 46 11 93 17 105 21 39 65 52 164
50 l92 -2 -3 69 c-1 40 3 80 10 96 20 42 341 372 399 408 l51 33 65 -71 c66
-73 88 -83 77 -34 -14 69 -41 120 -90 174 -30 32 -54 64 -54 72 0 14 18 23
117 56 89 29 149 27 198 -7 l40 -27 -18 28 c-24 36 -18 74 16 100 23 17 49 22
128 27 78 5 106 10 127 26 39 29 62 74 72 142 8 57 13 65 132 208 300 360 505
711 704 1202 30 74 52 136 50 139 -19 19 -211 -174 -294 -296 -74 -108 -107
-131 -152 -108 -17 8 -32 11 -34 8 -2 -4 -16 -46 -30 -94 -15 -49 -28 -88 -30
-88 -2 0 -1 35 2 77 l5 78 -44 -36 c-337 -274 -1063 -804 -1444 -1054 -242
-159 -274 -174 -330 -151 -30 13 -69 52 -78 79 -2 7 -26 -8 -58 -37 -69 -62
-95 -72 -121 -49 -14 13 -19 28 -16 53 l3 36 -70 2 c-38 1 -75 -2 -81 -6 -6
-4 -21 -26 -33 -50 -12 -23 -25 -42 -29 -42 -4 0 -16 16 -26 35 -11 19 -23 35
-27 35 -4 0 -13 -34 -20 -76 -12 -75 -12 -76 -25 -45 -7 17 -17 31 -22 31 -11
0 -46 -39 -61 -68 -12 -23 -14 -21 -60 45 -27 37 -59 77 -71 88 l-23 20 8 -20
c21 -53 28 -106 16 -118 -10 -9 -16 -7 -30 10 -18 22 -18 21 -25 -40 -3 -34
-11 -64 -18 -66 -6 -2 -40 -30 -74 -62 -69 -64 -72 -65 -189 -74 -100 -7 -304
-40 -396 -65 -68 -17 -72 -17 -142 1 -242 63 -633 127 -942 154 -339 29 -504
77 -759 222 -87 49 -98 58 -82 67 44 26 75 59 86 91 16 49 4 62 -29 32 -31
-28 -44 -34 -135 -53 l-69 -14 -111 108 c-61 59 -277 263 -481 453 -491 460
-828 803 -922 939 -48 71 -97 175 -193 409 -125 308 -113 286 -145 251 -10
-11 -26 -20 -36 -20 -24 0 -66 53 -80 100 -22 74 25 129 87 101 13 -6 24 -7
24 -2 0 4 -21 149 -46 322 -27 189 -43 332 -40 360 2 26 29 99 59 165 l55 119
61 560 c73 665 95 786 194 1042 148 381 396 715 842 1131 411 385 410 384 610
500 66 38 217 127 335 197 439 261 705 380 1013 450 158 36 268 47 547 53 262
6 288 9 320 27 59 35 74 74 78 201 l4 112 -46 -5 c-52 -6 -79 7 -174 83 -32
25 -79 54 -104 64 l-46 17 -218 -82z m-3416 -5718 c12 -13 47 -79 77 -147 30
-68 62 -134 71 -148 20 -31 16 -34 -24 -15 -55 27 -90 75 -97 137 -6 47 -19
79 -73 189 -9 17 26 5 46 -16z m-95 -77 c15 -46 26 -87 25 -91 -5 -13 -108
120 -108 139 0 10 6 24 12 30 26 26 43 7 71 -78z"/>
<path d="M11307 11751 l-139 -6 -31 -36 c-18 -19 -36 -43 -42 -52 -9 -15 -15
-15 -65 -2 -59 16 -180 13 -257 -7 -53 -13 -110 -69 -124 -121 -32 -118 64
-244 256 -337 101 -49 216 -78 356 -90 l108 -10 123 -71 c274 -159 539 -337
1106 -742 205 -147 383 -272 395 -279 43 -22 101 -13 192 30 48 23 91 42 96
42 5 0 9 -44 9 -97 0 -115 25 -218 92 -385 56 -138 90 -185 187 -256 43 -32
90 -71 103 -87 86 -102 108 -253 62 -416 l-16 -57 51 -98 c92 -181 221 -349
314 -411 41 -28 42 -30 48 -96 9 -106 50 -135 108 -75 37 38 37 41 17 -122
-25 -200 -30 -328 -15 -426 l13 -89 8 75 c37 352 74 563 132 745 19 60 33 111
31 113 -9 10 -42 -21 -79 -73 -23 -32 -50 -61 -62 -66 -21 -7 -21 -4 -27 174
-8 214 -25 395 -71 760 l-34 267 -448 718 c-246 394 -468 742 -493 772 -250
305 -660 570 -1111 718 -167 55 -273 79 -405 92 -113 10 -151 10 -388 1z"/>
<path d="M8786 9989 c-342 -39 -643 -174 -868 -387 -190 -181 -314 -387 -372
-624 -36 -146 -46 -230 -47 -398 -2 -513 231 -945 646 -1200 153 -94 307 -152
500 -187 79 -15 225 -18 1195 -23 875 -5 1113 -9 1145 -19 203 -67 305 -225
306 -471 1 -238 -95 -385 -294 -454 l-62 -21 -1692 -3 -1693 -2 0 -600 0 -600
1654 0 c1080 0 1690 4 1757 10 595 61 1101 377 1337 837 137 267 192 500 192
818 1 293 -53 542 -172 795 -217 463 -635 785 -1145 882 -117 22 -132 22
-1238 28 -1053 5 -1122 6 -1153 23 -62 34 -99 134 -86 235 8 69 38 111 99 142
l50 25 1528 3 1527 2 0 600 0 600 -1522 -1 c-838 -1 -1554 -5 -1592 -10z"/>
</g>
</svg>
